<?xml version="1.0" encoding="UTF-8" standalone="no"?>
<!DOCTYPE svg PUBLIC "-//W3C//DTD SVG 1.0//EN" "http://www.w3.org/TR/2001/PR-SVG-20010719/DTD/svg10.dtd">
<svg width="30cm" height="35cm" viewBox="160 0 582 692" xmlns="http://www.w3.org/2000/svg" xmlns:xlink="http://www.w3.org/1999/xlink">
  <g>
    <polygon style="fill: #000000" points="455.33,0.25 453.725,27.7246 462.51,28.2377 451.764,61.3047 453.369,33.8301 444.584,33.317 "/>
    <polygon style="fill: none; fill-opacity:0; stroke-width: 1.6; stroke: #000000" points="455.33,0.25 453.725,27.7246 462.51,28.2377 451.764,61.3047 453.369,33.8301 444.584,33.317 "/>
  </g>
  <g>
    <path style="fill: #c9c9b6" d="M 399.667 70.3871 L 409.517,61.3201 L 499.134,61.3201 L 489.268,70.3871 L 399.667,70.3871z"/>
    <path style="fill: none; fill-opacity:0; stroke-width: 0.02; stroke-dasharray: 4; stroke: #494936" d="M 400.13 69.9721 L 409.149,61.6553 L 498.783,61.6553 L 489.268,70.3871 L 400.13,70.3871 L 400.13,69.9721"/>
    <path style="fill: #b7b79d" d="M 399.667 70.3871 L 489.987,70.3871 L 489.987,141.024 L 399.667,141.024 L 399.667,70.3871z"/>
    <path style="fill: none; fill-opacity:0; stroke-width: 0.02; stroke-dasharray: 4; stroke: #494936" d="M 400.13 70.3871 L 489.955,70.3871 L 489.955,140.992 L 400.13,140.992 L 400.13,70.3871"/>
    <path style="fill: #7a7a5a" d="M 489.268 140.338 L 499.134,130.536 L 499.134,61.3201 L 489.268,70.3871 L 489.268,140.338z"/>
    <path style="fill: none; fill-opacity:0; stroke-width: 0.02; stroke-dasharray: 4; stroke: #494936" d="M 489.268 140.338 L 499.134,130.536 L 499.134,61.6553 L 498.783,61.6553 L 489.268,70.3871 L 489.268,140.338 L 489.268,140.338"/>
  </g>
  <g>
    <path style="fill: #c9c9b6" d="M 321.667 209.387 L 331.517,200.32 L 421.134,200.32 L 411.268,209.387 L 321.667,209.387z"/>
    <path style="fill: none; fill-opacity:0; stroke-width: 0.02; stroke-dasharray: 4; stroke: #494936" d="M 322.13 208.972 L 331.149,200.655 L 420.783,200.655 L 411.268,209.387 L 322.13,209.387 L 322.13,208.972"/>
    <path style="fill: #b7b79d" d="M 321.667 209.387 L 411.987,209.387 L 411.987,280.024 L 321.667,280.024 L 321.667,209.387z"/>
    <path style="fill: none; fill-opacity:0; stroke-width: 0.02; stroke-dasharray: 4; stroke: #494936" d="M 322.13 209.387 L 411.955,209.387 L 411.955,279.992 L 322.13,279.992 L 322.13,209.387"/>
    <path style="fill: #7a7a5a" d="M 411.268 279.338 L 421.134,269.536 L 421.134,200.32 L 411.268,209.387 L 411.268,279.338z"/>
    <path style="fill: none; fill-opacity:0; stroke-width: 0.02; stroke-dasharray: 4; stroke: #494936" d="M 411.268 279.338 L 421.134,269.536 L 421.134,200.655 L 420.783,200.655 L 411.268,209.387 L 411.268,279.338 L 411.268,279.338"/>
  </g>
  <g>
    <path style="fill: #c9c9b6" d="M 480.317 208.887 L 490.167,199.82 L 579.784,199.82 L 569.918,208.887 L 480.317,208.887z"/>
    <path style="fill: none; fill-opacity:0; stroke-width: 0.02; stroke-dasharray: 4; stroke: #494936" d="M 480.78 208.472 L 489.799,200.155 L 579.433,200.155 L 569.918,208.887 L 480.78,208.887 L 480.78,208.472"/>
    <path style="fill: #b7b79d" d="M 480.317 208.887 L 570.637,208.887 L 570.637,279.524 L 480.317,279.524 L 480.317,208.887z"/>
    <path style="fill: none; fill-opacity:0; stroke-width: 0.02; stroke-dasharray: 4; stroke: #494936" d="M 480.78 208.887 L 570.605,208.887 L 570.605,279.492 L 480.78,279.492 L 480.78,208.887"/>
    <path style="fill: #7a7a5a" d="M 569.918 278.838 L 579.784,269.036 L 579.784,199.82 L 569.918,208.887 L 569.918,278.838z"/>
    <path style="fill: none; fill-opacity:0; stroke-width: 0.02; stroke-dasharray: 4; stroke: #494936" d="M 569.918 278.838 L 579.784,269.036 L 579.784,200.155 L 579.433,200.155 L 569.918,208.887 L 569.918,278.838 L 569.918,278.838"/>
  </g>
  <g>
    <path style="fill: #c9c9b6" d="M 640.967 210.387 L 650.817,201.32 L 740.434,201.32 L 730.568,210.387 L 640.967,210.387z"/>
    <path style="fill: none; fill-opacity:0; stroke-width: 0.02; stroke-dasharray: 4; stroke: #494936" d="M 641.43 209.972 L 650.449,201.655 L 740.083,201.655 L 730.568,210.387 L 641.43,210.387 L 641.43,209.972"/>
    <path style="fill: #b7b79d" d="M 640.967 210.387 L 731.287,210.387 L 731.287,281.024 L 640.967,281.024 L 640.967,210.387z"/>
    <path style="fill: none; fill-opacity:0; stroke-width: 0.02; stroke-dasharray: 4; stroke: #494936" d="M 641.43 210.387 L 731.255,210.387 L 731.255,280.992 L 641.43,280.992 L 641.43,210.387"/>
    <path style="fill: #7a7a5a" d="M 730.568 280.338 L 740.434,270.536 L 740.434,201.32 L 730.568,210.387 L 730.568,280.338z"/>
    <path style="fill: none; fill-opacity:0; stroke-width: 0.02; stroke-dasharray: 4; stroke: #494936" d="M 730.568 280.338 L 740.434,270.536 L 740.434,201.655 L 740.083,201.655 L 730.568,210.387 L 730.568,280.338 L 730.568,280.338"/>
  </g>
  <g>
    <path style="fill: #c9c9b6" d="M 161.617 208.887 L 171.467,199.82 L 261.084,199.82 L 251.218,208.887 L 161.617,208.887z"/>
    <path style="fill: none; fill-opacity:0; stroke-width: 0.02; stroke-dasharray: 4; stroke: #494936" d="M 162.08 208.472 L 171.099,200.155 L 260.733,200.155 L 251.218,208.887 L 162.08,208.887 L 162.08,208.472"/>
    <path style="fill: #b7b79d" d="M 161.617 208.887 L 251.937,208.887 L 251.937,279.524 L 161.617,279.524 L 161.617,208.887z"/>
    <path style="fill: none; fill-opacity:0; stroke-width: 0.02; stroke-dasharray: 4; stroke: #494936" d="M 162.08 208.887 L 251.905,208.887 L 251.905,279.492 L 162.08,279.492 L 162.08,208.887"/>
    <path style="fill: #7a7a5a" d="M 251.218 278.838 L 261.084,269.036 L 261.084,199.82 L 251.218,208.887 L 251.218,278.838z"/>
    <path style="fill: none; fill-opacity:0; stroke-width: 0.02; stroke-dasharray: 4; stroke: #494936" d="M 251.218 278.838 L 261.084,269.036 L 261.084,200.155 L 260.733,200.155 L 251.218,208.887 L 251.218,278.838 L 251.218,278.838"/>
  </g>
  <text font-size="20.32" style="fill: #000000;text-anchor:middle;font-family:sans-serif;font-style:normal;font-weight:normal" x="449.452" y="95.2209">
    <tspan x="449.452" y="95.2209">Nginx</tspan>
    <tspan x="449.452" y="120.621">Proxy</tspan>
  </text>
  <text font-size="20.32" style="fill: #000000;text-anchor:middle;font-family:sans-serif;font-style:normal;font-weight:normal" x="211.402" y="233.721">
    <tspan x="211.402" y="233.721">Apache</tspan>
    <tspan x="211.402" y="259.121">PHP 5.4</tspan>
  </text>
  <text font-size="20.32" style="fill: #000000;text-anchor:middle;font-family:sans-serif;font-style:normal;font-weight:normal" x="371.452" y="234.221">
    <tspan x="371.452" y="234.221">Nginx</tspan>
    <tspan x="371.452" y="259.621">latest</tspan>
  </text>
  <text font-size="20.32" style="fill: #000000;text-anchor:middle;font-family:sans-serif;font-style:normal;font-weight:normal" x="530.102" y="233.721">
    <tspan x="530.102" y="233.721">Nginx</tspan>
    <tspan x="530.102" y="259.121">1.8</tspan>
  </text>
  <text font-size="20.32" style="fill: #000000;text-anchor:middle;font-family:sans-serif;font-style:normal;font-weight:normal" x="690.752" y="235.221">
    <tspan x="690.752" y="235.221">Nginx</tspan>
    <tspan x="690.752" y="260.621">1.9</tspan>
  </text>
  <g>
    <path style="fill: #c9c9b6" d="M 400.667 347.387 L 410.517,338.32 L 500.134,338.32 L 490.268,347.387 L 400.667,347.387z"/>
    <path style="fill: none; fill-opacity:0; stroke-width: 0.02; stroke-dasharray: 4; stroke: #494936" d="M 401.13 346.972 L 410.149,338.655 L 499.783,338.655 L 490.268,347.387 L 401.13,347.387 L 401.13,346.972"/>
    <path style="fill: #b7b79d" d="M 400.667 347.387 L 490.987,347.387 L 490.987,418.024 L 400.667,418.024 L 400.667,347.387z"/>
    <path style="fill: none; fill-opacity:0; stroke-width: 0.02; stroke-dasharray: 4; stroke: #494936" d="M 401.13 347.387 L 490.955,347.387 L 490.955,417.992 L 401.13,417.992 L 401.13,347.387"/>
    <path style="fill: #7a7a5a" d="M 490.268 417.338 L 500.134,407.536 L 500.134,338.32 L 490.268,347.387 L 490.268,417.338z"/>
    <path style="fill: none; fill-opacity:0; stroke-width: 0.02; stroke-dasharray: 4; stroke: #494936" d="M 490.268 417.338 L 500.134,407.536 L 500.134,338.655 L 499.783,338.655 L 490.268,347.387 L 490.268,417.338 L 490.268,417.338"/>
  </g>
  <text font-size="20.32" style="fill: #000000;text-anchor:middle;font-family:sans-serif;font-style:normal;font-weight:normal" x="450.452" y="372.221">
    <tspan x="450.452" y="372.221">PHP</tspan>
    <tspan x="450.452" y="397.621">latest</tspan>
  </text>
  <g>
    <path style="fill: #c9c9b6" d="M 560.317 347.887 L 570.167,338.82 L 659.784,338.82 L 649.918,347.887 L 560.317,347.887z"/>
    <path style="fill: none; fill-opacity:0; stroke-width: 0.02; stroke-dasharray: 4; stroke: #494936" d="M 560.78 347.472 L 569.799,339.155 L 659.433,339.155 L 649.918,347.887 L 560.78,347.887 L 560.78,347.472"/>
    <path style="fill: #b7b79d" d="M 560.317 347.887 L 650.637,347.887 L 650.637,418.524 L 560.317,418.524 L 560.317,347.887z"/>
    <path style="fill: none; fill-opacity:0; stroke-width: 0.02; stroke-dasharray: 4; stroke: #494936" d="M 560.78 347.887 L 650.605,347.887 L 650.605,418.492 L 560.78,418.492 L 560.78,347.887"/>
    <path style="fill: #7a7a5a" d="M 649.918 417.838 L 659.784,408.036 L 659.784,338.82 L 649.918,347.887 L 649.918,417.838z"/>
    <path style="fill: none; fill-opacity:0; stroke-width: 0.02; stroke-dasharray: 4; stroke: #494936" d="M 649.918 417.838 L 659.784,408.036 L 659.784,339.155 L 659.433,339.155 L 649.918,347.887 L 649.918,417.838 L 649.918,417.838"/>
  </g>
  <text font-size="20.32" style="fill: #000000;text-anchor:middle;font-family:sans-serif;font-style:normal;font-weight:normal" x="610.102" y="372.721">
    <tspan x="610.102" y="372.721">PHP</tspan>
    <tspan x="610.102" y="398.121">7.1</tspan>
  </text>
  <g>
    <path style="fill: #c9c9b6" d="M 240.667 490.387 L 250.517,481.32 L 340.134,481.32 L 330.268,490.387 L 240.667,490.387z"/>
    <path style="fill: none; fill-opacity:0; stroke-width: 0.02; stroke-dasharray: 4; stroke: #494936" d="M 241.13 489.972 L 250.149,481.655 L 339.783,481.655 L 330.268,490.387 L 241.13,490.387 L 241.13,489.972"/>
    <path style="fill: #b7b79d" d="M 240.667 490.387 L 330.987,490.387 L 330.987,561.024 L 240.667,561.024 L 240.667,490.387z"/>
    <path style="fill: none; fill-opacity:0; stroke-width: 0.02; stroke-dasharray: 4; stroke: #494936" d="M 241.13 490.387 L 330.955,490.387 L 330.955,560.992 L 241.13,560.992 L 241.13,490.387"/>
    <path style="fill: #7a7a5a" d="M 330.268 560.338 L 340.134,550.536 L 340.134,481.32 L 330.268,490.387 L 330.268,560.338z"/>
    <path style="fill: none; fill-opacity:0; stroke-width: 0.02; stroke-dasharray: 4; stroke: #494936" d="M 330.268 560.338 L 340.134,550.536 L 340.134,481.655 L 339.783,481.655 L 330.268,490.387 L 330.268,560.338 L 330.268,560.338"/>
  </g>
  <g>
    <path style="fill: #c9c9b6" d="M 481.317 489.887 L 491.167,480.82 L 580.784,480.82 L 570.918,489.887 L 481.317,489.887z"/>
    <path style="fill: none; fill-opacity:0; stroke-width: 0.02; stroke-dasharray: 4; stroke: #494936" d="M 481.78 489.472 L 490.799,481.155 L 580.433,481.155 L 570.918,489.887 L 481.78,489.887 L 481.78,489.472"/>
    <path style="fill: #b7b79d" d="M 481.317 489.887 L 571.637,489.887 L 571.637,560.524 L 481.317,560.524 L 481.317,489.887z"/>
    <path style="fill: none; fill-opacity:0; stroke-width: 0.02; stroke-dasharray: 4; stroke: #494936" d="M 481.78 489.887 L 571.605,489.887 L 571.605,560.492 L 481.78,560.492 L 481.78,489.887"/>
    <path style="fill: #7a7a5a" d="M 570.918 559.838 L 580.784,550.036 L 580.784,480.82 L 570.918,489.887 L 570.918,559.838z"/>
    <path style="fill: none; fill-opacity:0; stroke-width: 0.02; stroke-dasharray: 4; stroke: #494936" d="M 570.918 559.838 L 580.784,550.036 L 580.784,481.155 L 580.433,481.155 L 570.918,489.887 L 570.918,559.838 L 570.918,559.838"/>
  </g>
  <text font-size="20.32" style="fill: #000000;text-anchor:middle;font-family:sans-serif;font-style:normal;font-weight:normal" x="290.452" y="515.221">
    <tspan x="290.452" y="515.221">MySQL</tspan>
    <tspan x="290.452" y="540.621">latest</tspan>
  </text>
  <text font-size="20.32" style="fill: #000000;text-anchor:middle;font-family:sans-serif;font-style:normal;font-weight:normal" x="531.102" y="514.721">
    <tspan x="531.102" y="514.721">Postgres</tspan>
    <tspan x="531.102" y="540.121">latest</tspan>
  </text>
  <g>
    <path style="fill: #a5a585" d="M 260.383 671.719 L 260.314,670.843 L 260.123,669.981 L 259.794,669.119 L 259.342,668.27 L 258.781,667.422 L 258.084,666.587 L 257.262,665.766 L 256.318,664.959 L 255.251,664.165 L 254.074,663.412 L 252.788,662.66 L 251.406,661.921 L 249.887,661.223 L 248.285,660.552 L 246.589,659.909 L 244.782,659.293 L 242.907,658.719 L 240.937,658.171 L 238.898,657.665 L 236.763,657.186 L 234.587,656.734 L 232.329,656.338 L 230.017,655.954 L 227.677,655.64 L 225.268,655.366 L 222.819,655.133 L 220.355,654.928 L 217.851,654.791 L 215.333,654.668 L 212.802,654.586 L 210.27,654.586 L 210.27,654.586 L 207.725,654.586 L 205.193,654.668 L 202.675,654.791 L 200.171,654.928 L 197.708,655.133 L 195.258,655.366 L 192.863,655.64 L 190.51,655.954 L 188.197,656.338 L 185.939,656.734 L 183.763,657.186 L 181.642,657.665 L 179.603,658.171 L 177.633,658.719 L 175.744,659.293 L 173.938,659.909 L 172.255,660.552 L 170.64,661.223 L 169.134,661.921 L 167.739,662.66 L 166.452,663.412 L 165.275,664.165 L 164.208,664.959 L 163.264,665.766 L 162.443,666.587 L 161.745,667.422 L 161.184,668.27 L 160.732,669.119 L 160.404,669.981 L 160.226,670.843 L 160.157,671.719 L 160.157,671.719 L 160.226,672.595 L 160.404,673.443 L 160.732,674.319 L 161.184,675.167 L 161.745,676.016 L 162.443,676.851 L 163.264,677.672 L 164.208,678.479 L 165.275,679.259 L 166.452,680.025 L 167.739,680.778 L 169.134,681.517 L 170.64,682.215 L 172.255,682.885 L 173.938,683.529 L 175.744,684.144 L 177.633,684.719 L 179.603,685.267 L 181.642,685.773 L 183.763,686.252 L 185.939,686.703 L 188.197,687.1 L 190.51,687.47 L 192.863,687.798 L 195.258,688.072 L 197.708,688.304 L 200.171,688.496 L 202.675,688.647 L 205.193,688.756 L 207.725,688.838 L 210.27,688.852 L 210.27,688.852 L 212.802,688.838 L 215.333,688.756 L 217.851,688.647 L 220.355,688.496 L 222.819,688.304 L 225.268,688.072 L 227.677,687.798 L 230.017,687.47 L 232.329,687.1 L 234.587,686.703 L 236.763,686.252 L 238.898,685.773 L 240.937,685.267 L 242.907,684.719 L 244.782,684.144 L 246.589,683.529 L 248.285,682.885 L 249.887,682.215 L 251.406,681.517 L 252.788,680.778 L 254.074,680.025 L 255.251,679.259 L 256.318,678.479 L 257.262,677.672 L 258.084,676.851 L 258.781,676.016 L 259.342,675.167 L 259.794,674.319 L 260.123,673.443 L 260.314,672.595 L 260.383,671.719z"/>
    <path style="fill: none; fill-opacity:0; stroke-width: 0.02; stroke-dasharray: 4; stroke: #494936" d="M 259.794 671.445 L 259.726,670.569 L 259.548,669.735 L 259.233,668.886 L 258.795,668.051 L 258.207,667.203 L 257.495,666.396 L 256.715,665.575 L 255.757,664.808 L 254.703,664.028 L 253.54,663.262 L 252.254,662.537 L 250.872,661.811 L 249.38,661.127 L 247.806,660.443 L 246.082,659.827 L 244.29,659.225 L 242.415,658.65 L 240.472,658.117 L 238.446,657.624 L 236.339,657.145 L 234.149,656.721 L 231.919,656.324 L 229.62,655.954 L 227.293,655.64 L 224.912,655.366 L 222.463,655.147 L 220.013,654.928 L 217.523,654.805 L 215.032,654.695 L 212.487,654.627 L 209.969,654.586 L 209.969,654.586 L 207.451,654.627 L 204.933,654.695 L 202.415,654.805 L 199.952,654.928 L 197.489,655.147 L 195.053,655.366 L 192.658,655.64 L 190.318,655.954 L 188.033,656.324 L 185.802,656.721 L 183.613,657.145 L 181.505,657.624 L 179.494,658.117 L 177.523,658.65 L 175.635,659.225 L 173.856,659.827 L 172.159,660.443 L 170.585,661.127 L 169.08,661.811 L 167.684,662.537 L 166.425,663.262 L 165.262,664.028 L 164.181,664.808 L 163.25,665.575 L 162.443,666.396 L 161.745,667.203 L 161.17,668.051 L 160.719,668.886 L 160.404,669.735 L 160.226,670.569 L 160.157,671.445 L 160.157,671.445 L 160.226,672.294 L 160.404,673.128 L 160.719,673.991 L 161.17,674.825 L 161.745,675.66 L 162.443,676.481 L 163.25,677.288 L 164.181,678.068 L 165.262,678.835 L 166.425,679.615 L 167.684,680.354 L 169.08,681.052 L 170.585,681.75 L 172.159,682.42 L 173.856,683.05 L 175.635,683.652 L 177.523,684.213 L 179.494,684.76 L 181.505,685.253 L 183.613,685.732 L 185.802,686.17 L 188.033,686.553 L 190.318,686.909 L 192.658,687.223 L 195.053,687.497 L 197.489,687.73 L 199.952,687.935 L 202.415,688.072 L 204.933,688.181 L 207.451,688.25 L 209.969,688.277 L 209.969,688.277 L 212.487,688.25 L 215.032,688.181 L 217.523,688.072 L 220.013,687.935 L 222.463,687.73 L 224.912,687.497 L 227.293,687.223 L 229.62,686.909 L 231.919,686.553 L 234.149,686.17 L 236.339,685.732 L 238.446,685.253 L 240.472,684.76 L 242.415,684.213 L 244.29,683.652 L 246.082,683.05 L 247.806,682.42 L 249.38,681.75 L 250.872,681.052 L 252.254,680.354 L 253.54,679.615 L 254.703,678.835 L 255.757,678.068 L 256.715,677.288 L 257.495,676.481 L 258.207,675.66 L 258.795,674.825 L 259.233,673.991 L 259.548,673.128 L 259.726,672.294 L 259.794,671.445"/>
    <path style="fill: #a5a585" d="M 160.157 635.934 L 160.157,672.02 L 259.794,672.02 L 259.794,635.934 L 160.157,635.934z"/>
    <path style="fill: #c9c9b6" d="M 260.383 635.633 L 260.314,634.743 L 260.123,633.881 L 259.794,633.033 L 259.342,632.184 L 258.781,631.322 L 258.084,630.488 L 257.262,629.653 L 256.318,628.873 L 255.251,628.093 L 254.074,627.299 L 252.788,626.574 L 251.406,625.835 L 249.887,625.123 L 248.285,624.466 L 246.589,623.823 L 244.782,623.194 L 242.907,622.619 L 240.937,622.085 L 238.898,621.565 L 236.763,621.086 L 234.587,620.648 L 232.329,620.252 L 230.017,619.882 L 227.677,619.554 L 225.268,619.28 L 222.819,619.047 L 220.355,618.856 L 217.851,618.705 L 215.333,618.582 L 212.802,618.514 L 210.27,618.5 L 210.27,618.5 L 207.725,618.514 L 205.193,618.582 L 202.675,618.705 L 200.171,618.856 L 197.708,619.047 L 195.258,619.28 L 192.863,619.554 L 190.51,619.882 L 188.197,620.252 L 185.939,620.648 L 183.763,621.086 L 181.642,621.565 L 179.603,622.085 L 177.633,622.619 L 175.744,623.194 L 173.938,623.823 L 172.255,624.466 L 170.64,625.123 L 169.134,625.835 L 167.739,626.574 L 166.452,627.299 L 165.275,628.093 L 164.208,628.873 L 163.264,629.653 L 162.443,630.488 L 161.745,631.322 L 161.184,632.184 L 160.732,633.033 L 160.404,633.881 L 160.226,634.743 L 160.157,635.633 L 160.157,635.633 L 160.226,636.495 L 160.404,637.371 L 160.732,638.206 L 161.184,639.081 L 161.745,639.916 L 162.443,640.765 L 163.264,641.586 L 164.208,642.379 L 165.275,643.173 L 166.452,643.939 L 167.739,644.692 L 169.134,645.417 L 170.64,646.115 L 172.255,646.786 L 173.938,647.443 L 175.744,648.045 L 177.633,648.633 L 179.603,649.181 L 181.642,649.687 L 183.763,650.166 L 185.939,650.617 L 188.197,651.001 L 190.51,651.384 L 192.863,651.699 L 195.258,651.972 L 197.708,652.219 L 200.171,652.396 L 202.675,652.561 L 205.193,652.67 L 207.725,652.739 L 210.27,652.766 L 210.27,652.766 L 212.802,652.739 L 215.333,652.67 L 217.851,652.561 L 220.355,652.396 L 222.819,652.219 L 225.268,651.972 L 227.677,651.699 L 230.017,651.384 L 232.329,651.001 L 234.587,650.617 L 236.763,650.166 L 238.898,649.687 L 240.937,649.181 L 242.907,648.633 L 244.782,648.045 L 246.589,647.443 L 248.285,646.786 L 249.887,646.115 L 251.406,645.417 L 252.788,644.692 L 254.074,643.939 L 255.251,643.173 L 256.318,642.379 L 257.262,641.586 L 258.084,640.765 L 258.781,639.916 L 259.342,639.081 L 259.794,638.206 L 260.123,637.371 L 260.314,636.495 L 260.383,635.633z"/>
    <path style="fill: none; fill-opacity:0; stroke-width: 0.02; stroke-dasharray: 4; stroke: #494936" d="M 259.794 635.359 L 259.726,634.483 L 259.548,633.649 L 259.233,632.814 L 258.795,631.966 L 258.207,631.103 L 257.495,630.296 L 256.715,629.516 L 255.757,628.709 L 254.703,627.942 L 253.54,627.162 L 252.254,626.451 L 250.872,625.725 L 249.38,625.027 L 247.806,624.384 L 246.082,623.741 L 244.29,623.153 L 242.415,622.578 L 240.472,622.031 L 238.446,621.524 L 236.339,621.059 L 234.149,620.635 L 231.919,620.238 L 229.62,619.882 L 227.293,619.554 L 224.912,619.28 L 222.463,619.047 L 220.013,618.856 L 217.523,618.705 L 216.688,618.664 L 203.25,618.664 L 202.415,618.705 L 199.952,618.856 L 197.489,619.047 L 195.053,619.28 L 192.658,619.554 L 190.318,619.882 L 188.033,620.238 L 185.802,620.635 L 183.613,621.059 L 181.505,621.524 L 179.494,622.031 L 177.523,622.578 L 175.635,623.153 L 173.856,623.741 L 172.159,624.384 L 170.585,625.027 L 169.08,625.725 L 167.684,626.451 L 166.425,627.162 L 165.262,627.942 L 164.181,628.709 L 163.25,629.516 L 162.443,630.296 L 161.745,631.103 L 161.17,631.966 L 160.719,632.814 L 160.404,633.649 L 160.226,634.483 L 160.157,635.359 L 160.157,635.359 L 160.226,636.194 L 160.404,637.056 L 160.719,637.905 L 161.17,638.739 L 161.745,639.574 L 162.443,640.395 L 163.25,641.189 L 164.181,641.996 L 165.262,642.763 L 166.425,643.529 L 167.684,644.268 L 169.08,644.966 L 170.585,645.65 L 172.159,646.334 L 173.856,646.964 L 175.635,647.552 L 177.523,648.113 L 179.494,648.661 L 181.505,649.153 L 183.613,649.632 L 185.802,650.084 L 188.033,650.44 L 190.318,650.823 L 192.658,651.124 L 195.053,651.411 L 197.489,651.657 L 199.952,651.849 L 202.415,652 L 204.933,652.095 L 207.451,652.15 L 209.969,652.191 L 209.969,652.191 L 212.487,652.15 L 215.032,652.095 L 217.523,652 L 220.013,651.849 L 222.463,651.657 L 224.912,651.411 L 227.293,651.124 L 229.62,650.823 L 231.919,650.44 L 234.149,650.084 L 236.339,649.632 L 238.446,649.153 L 240.472,648.661 L 242.415,648.113 L 244.29,647.552 L 246.082,646.964 L 247.806,646.334 L 249.38,645.65 L 250.872,644.966 L 252.254,644.268 L 253.54,643.529 L 254.703,642.763 L 255.757,641.996 L 256.715,641.189 L 257.495,640.395 L 258.207,639.574 L 258.795,638.739 L 259.233,637.905 L 259.548,637.056 L 259.726,636.194 L 259.794,635.359"/>
    <path style="fill: none; fill-opacity:0; stroke-width: 0.02; stroke-dasharray: 4; stroke: #000000" d="M 160.157 635.359 L 160.157,671.418"/>
    <path style="fill: none; fill-opacity:0; stroke-width: 0.02; stroke-dasharray: 4; stroke: #000000" d="M 259.794 635.359 L 259.794,671.418"/>
  </g>
  <g>
    <path style="fill: #a5a585" d="M 422.033 674.219 L 421.964,673.343 L 421.773,672.481 L 421.444,671.619 L 420.992,670.77 L 420.431,669.922 L 419.734,669.087 L 418.912,668.266 L 417.968,667.459 L 416.901,666.665 L 415.724,665.912 L 414.438,665.16 L 413.056,664.421 L 411.537,663.723 L 409.935,663.052 L 408.239,662.409 L 406.432,661.793 L 404.557,661.219 L 402.587,660.671 L 400.548,660.165 L 398.413,659.686 L 396.237,659.234 L 393.979,658.838 L 391.667,658.454 L 389.327,658.14 L 386.918,657.866 L 384.469,657.633 L 382.005,657.428 L 379.501,657.291 L 376.983,657.168 L 374.452,657.086 L 371.92,657.086 L 371.92,657.086 L 369.375,657.086 L 366.843,657.168 L 364.325,657.291 L 361.821,657.428 L 359.358,657.633 L 356.908,657.866 L 354.513,658.14 L 352.16,658.454 L 349.847,658.838 L 347.589,659.234 L 345.413,659.686 L 343.292,660.165 L 341.253,660.671 L 339.283,661.219 L 337.394,661.793 L 335.588,662.409 L 333.905,663.052 L 332.29,663.723 L 330.784,664.421 L 329.389,665.16 L 328.102,665.912 L 326.925,666.665 L 325.858,667.459 L 324.914,668.266 L 324.093,669.087 L 323.395,669.922 L 322.834,670.77 L 322.382,671.619 L 322.054,672.481 L 321.876,673.343 L 321.807,674.219 L 321.807,674.219 L 321.876,675.095 L 322.054,675.943 L 322.382,676.819 L 322.834,677.667 L 323.395,678.516 L 324.093,679.351 L 324.914,680.172 L 325.858,680.979 L 326.925,681.759 L 328.102,682.525 L 329.389,683.278 L 330.784,684.017 L 332.29,684.715 L 333.905,685.385 L 335.588,686.029 L 337.394,686.644 L 339.283,687.219 L 341.253,687.767 L 343.292,688.273 L 345.413,688.752 L 347.589,689.203 L 349.847,689.6 L 352.16,689.97 L 354.513,690.298 L 356.908,690.572 L 359.358,690.804 L 361.821,690.996 L 364.325,691.147 L 366.843,691.256 L 369.375,691.338 L 371.92,691.352 L 371.92,691.352 L 374.452,691.338 L 376.983,691.256 L 379.501,691.147 L 382.005,690.996 L 384.469,690.804 L 386.918,690.572 L 389.327,690.298 L 391.667,689.97 L 393.979,689.6 L 396.237,689.203 L 398.413,688.752 L 400.548,688.273 L 402.587,687.767 L 404.557,687.219 L 406.432,686.644 L 408.239,686.029 L 409.935,685.385 L 411.537,684.715 L 413.056,684.017 L 414.438,683.278 L 415.724,682.525 L 416.901,681.759 L 417.968,680.979 L 418.912,680.172 L 419.734,679.351 L 420.431,678.516 L 420.992,677.667 L 421.444,676.819 L 421.773,675.943 L 421.964,675.095 L 422.033,674.219z"/>
    <path style="fill: none; fill-opacity:0; stroke-width: 0.02; stroke-dasharray: 4; stroke: #494936" d="M 421.444 673.945 L 421.376,673.069 L 421.198,672.235 L 420.883,671.386 L 420.445,670.551 L 419.857,669.703 L 419.145,668.896 L 418.365,668.075 L 417.407,667.308 L 416.353,666.528 L 415.19,665.762 L 413.904,665.037 L 412.522,664.311 L 411.03,663.627 L 409.456,662.943 L 407.732,662.327 L 405.94,661.725 L 404.065,661.15 L 402.122,660.617 L 400.096,660.124 L 397.989,659.645 L 395.799,659.221 L 393.569,658.824 L 391.27,658.454 L 388.943,658.14 L 386.562,657.866 L 384.113,657.647 L 381.663,657.428 L 379.173,657.305 L 376.682,657.195 L 374.137,657.127 L 371.619,657.086 L 371.619,657.086 L 369.101,657.127 L 366.583,657.195 L 364.065,657.305 L 361.602,657.428 L 359.139,657.647 L 356.703,657.866 L 354.308,658.14 L 351.968,658.454 L 349.683,658.824 L 347.452,659.221 L 345.263,659.645 L 343.155,660.124 L 341.144,660.617 L 339.173,661.15 L 337.285,661.725 L 335.506,662.327 L 333.809,662.943 L 332.235,663.627 L 330.73,664.311 L 329.334,665.037 L 328.075,665.762 L 326.912,666.528 L 325.831,667.308 L 324.9,668.075 L 324.093,668.896 L 323.395,669.703 L 322.82,670.551 L 322.369,671.386 L 322.054,672.235 L 321.876,673.069 L 321.807,673.945 L 321.807,673.945 L 321.876,674.794 L 322.054,675.628 L 322.369,676.491 L 322.82,677.325 L 323.395,678.16 L 324.093,678.981 L 324.9,679.788 L 325.831,680.568 L 326.912,681.335 L 328.075,682.115 L 329.334,682.854 L 330.73,683.552 L 332.235,684.25 L 333.809,684.92 L 335.506,685.55 L 337.285,686.152 L 339.173,686.713 L 341.144,687.26 L 343.155,687.753 L 345.263,688.232 L 347.452,688.67 L 349.683,689.053 L 351.968,689.409 L 354.308,689.723 L 356.703,689.997 L 359.139,690.23 L 361.602,690.435 L 364.065,690.572 L 366.583,690.681 L 369.101,690.75 L 371.619,690.777 L 371.619,690.777 L 374.137,690.75 L 376.682,690.681 L 379.173,690.572 L 381.663,690.435 L 384.113,690.23 L 386.562,689.997 L 388.943,689.723 L 391.27,689.409 L 393.569,689.053 L 395.799,688.67 L 397.989,688.232 L 400.096,687.753 L 402.122,687.26 L 404.065,686.713 L 405.94,686.152 L 407.732,685.55 L 409.456,684.92 L 411.03,684.25 L 412.522,683.552 L 413.904,682.854 L 415.19,682.115 L 416.353,681.335 L 417.407,680.568 L 418.365,679.788 L 419.145,678.981 L 419.857,678.16 L 420.445,677.325 L 420.883,676.491 L 421.198,675.628 L 421.376,674.794 L 421.444,673.945"/>
    <path style="fill: #a5a585" d="M 321.807 638.434 L 321.807,674.52 L 421.444,674.52 L 421.444,638.434 L 321.807,638.434z"/>
    <path style="fill: #c9c9b6" d="M 422.033 638.133 L 421.964,637.243 L 421.773,636.381 L 421.444,635.533 L 420.992,634.684 L 420.431,633.822 L 419.734,632.988 L 418.912,632.153 L 417.968,631.373 L 416.901,630.593 L 415.724,629.799 L 414.438,629.074 L 413.056,628.335 L 411.537,627.623 L 409.935,626.966 L 408.239,626.323 L 406.432,625.694 L 404.557,625.119 L 402.587,624.585 L 400.548,624.065 L 398.413,623.586 L 396.237,623.148 L 393.979,622.752 L 391.667,622.382 L 389.327,622.054 L 386.918,621.78 L 384.469,621.547 L 382.005,621.356 L 379.501,621.205 L 376.983,621.082 L 374.452,621.014 L 371.92,621 L 371.92,621 L 369.375,621.014 L 366.843,621.082 L 364.325,621.205 L 361.821,621.356 L 359.358,621.547 L 356.908,621.78 L 354.513,622.054 L 352.16,622.382 L 349.847,622.752 L 347.589,623.148 L 345.413,623.586 L 343.292,624.065 L 341.253,624.585 L 339.283,625.119 L 337.394,625.694 L 335.588,626.323 L 333.905,626.966 L 332.29,627.623 L 330.784,628.335 L 329.389,629.074 L 328.102,629.799 L 326.925,630.593 L 325.858,631.373 L 324.914,632.153 L 324.093,632.988 L 323.395,633.822 L 322.834,634.684 L 322.382,635.533 L 322.054,636.381 L 321.876,637.243 L 321.807,638.133 L 321.807,638.133 L 321.876,638.995 L 322.054,639.871 L 322.382,640.706 L 322.834,641.581 L 323.395,642.416 L 324.093,643.265 L 324.914,644.086 L 325.858,644.879 L 326.925,645.673 L 328.102,646.439 L 329.389,647.192 L 330.784,647.917 L 332.29,648.615 L 333.905,649.286 L 335.588,649.943 L 337.394,650.545 L 339.283,651.133 L 341.253,651.681 L 343.292,652.187 L 345.413,652.666 L 347.589,653.117 L 349.847,653.501 L 352.16,653.884 L 354.513,654.199 L 356.908,654.472 L 359.358,654.719 L 361.821,654.896 L 364.325,655.061 L 366.843,655.17 L 369.375,655.239 L 371.92,655.266 L 371.92,655.266 L 374.452,655.239 L 376.983,655.17 L 379.501,655.061 L 382.005,654.896 L 384.469,654.719 L 386.918,654.472 L 389.327,654.199 L 391.667,653.884 L 393.979,653.501 L 396.237,653.117 L 398.413,652.666 L 400.548,652.187 L 402.587,651.681 L 404.557,651.133 L 406.432,650.545 L 408.239,649.943 L 409.935,649.286 L 411.537,648.615 L 413.056,647.917 L 414.438,647.192 L 415.724,646.439 L 416.901,645.673 L 417.968,644.879 L 418.912,644.086 L 419.734,643.265 L 420.431,642.416 L 420.992,641.581 L 421.444,640.706 L 421.773,639.871 L 421.964,638.995 L 422.033,638.133z"/>
    <path style="fill: none; fill-opacity:0; stroke-width: 0.02; stroke-dasharray: 4; stroke: #494936" d="M 421.444 637.859 L 421.376,636.983 L 421.198,636.149 L 420.883,635.314 L 420.445,634.466 L 419.857,633.603 L 419.145,632.796 L 418.365,632.016 L 417.407,631.209 L 416.353,630.442 L 415.19,629.662 L 413.904,628.951 L 412.522,628.225 L 411.03,627.527 L 409.456,626.884 L 407.732,626.241 L 405.94,625.653 L 404.065,625.078 L 402.122,624.531 L 400.096,624.024 L 397.989,623.559 L 395.799,623.135 L 393.569,622.738 L 391.27,622.382 L 388.943,622.054 L 386.562,621.78 L 384.113,621.547 L 381.663,621.356 L 379.173,621.205 L 378.338,621.164 L 364.9,621.164 L 364.065,621.205 L 361.602,621.356 L 359.139,621.547 L 356.703,621.78 L 354.308,622.054 L 351.968,622.382 L 349.683,622.738 L 347.452,623.135 L 345.263,623.559 L 343.155,624.024 L 341.144,624.531 L 339.173,625.078 L 337.285,625.653 L 335.506,626.241 L 333.809,626.884 L 332.235,627.527 L 330.73,628.225 L 329.334,628.951 L 328.075,629.662 L 326.912,630.442 L 325.831,631.209 L 324.9,632.016 L 324.093,632.796 L 323.395,633.603 L 322.82,634.466 L 322.369,635.314 L 322.054,636.149 L 321.876,636.983 L 321.807,637.859 L 321.807,637.859 L 321.876,638.694 L 322.054,639.556 L 322.369,640.405 L 322.82,641.239 L 323.395,642.074 L 324.093,642.895 L 324.9,643.689 L 325.831,644.496 L 326.912,645.263 L 328.075,646.029 L 329.334,646.768 L 330.73,647.466 L 332.235,648.15 L 333.809,648.834 L 335.506,649.464 L 337.285,650.052 L 339.173,650.613 L 341.144,651.161 L 343.155,651.653 L 345.263,652.132 L 347.452,652.584 L 349.683,652.94 L 351.968,653.323 L 354.308,653.624 L 356.703,653.911 L 359.139,654.157 L 361.602,654.349 L 364.065,654.5 L 366.583,654.595 L 369.101,654.65 L 371.619,654.691 L 371.619,654.691 L 374.137,654.65 L 376.682,654.595 L 379.173,654.5 L 381.663,654.349 L 384.113,654.157 L 386.562,653.911 L 388.943,653.624 L 391.27,653.323 L 393.569,652.94 L 395.799,652.584 L 397.989,652.132 L 400.096,651.653 L 402.122,651.161 L 404.065,650.613 L 405.94,650.052 L 407.732,649.464 L 409.456,648.834 L 411.03,648.15 L 412.522,647.466 L 413.904,646.768 L 415.19,646.029 L 416.353,645.263 L 417.407,644.496 L 418.365,643.689 L 419.145,642.895 L 419.857,642.074 L 420.445,641.239 L 420.883,640.405 L 421.198,639.556 L 421.376,638.694 L 421.444,637.859"/>
    <path style="fill: none; fill-opacity:0; stroke-width: 0.02; stroke-dasharray: 4; stroke: #000000" d="M 321.807 637.859 L 321.807,673.918"/>
    <path style="fill: none; fill-opacity:0; stroke-width: 0.02; stroke-dasharray: 4; stroke: #000000" d="M 421.444 637.859 L 421.444,673.918"/>
  </g>
  <g>
    <path style="fill: #a5a585" d="M 581.683 671.719 L 581.614,670.843 L 581.423,669.981 L 581.094,669.119 L 580.642,668.27 L 580.081,667.422 L 579.384,666.587 L 578.562,665.766 L 577.618,664.959 L 576.551,664.165 L 575.374,663.412 L 574.088,662.66 L 572.706,661.921 L 571.187,661.223 L 569.585,660.552 L 567.889,659.909 L 566.082,659.293 L 564.207,658.719 L 562.237,658.171 L 560.198,657.665 L 558.063,657.186 L 555.887,656.734 L 553.629,656.338 L 551.317,655.954 L 548.977,655.64 L 546.568,655.366 L 544.119,655.133 L 541.655,654.928 L 539.151,654.791 L 536.633,654.668 L 534.102,654.586 L 531.57,654.586 L 531.57,654.586 L 529.025,654.586 L 526.493,654.668 L 523.975,654.791 L 521.471,654.928 L 519.008,655.133 L 516.558,655.366 L 514.163,655.64 L 511.81,655.954 L 509.497,656.338 L 507.239,656.734 L 505.063,657.186 L 502.942,657.665 L 500.903,658.171 L 498.933,658.719 L 497.044,659.293 L 495.238,659.909 L 493.555,660.552 L 491.94,661.223 L 490.434,661.921 L 489.039,662.66 L 487.752,663.412 L 486.575,664.165 L 485.508,664.959 L 484.564,665.766 L 483.743,666.587 L 483.045,667.422 L 482.484,668.27 L 482.032,669.119 L 481.704,669.981 L 481.526,670.843 L 481.457,671.719 L 481.457,671.719 L 481.526,672.595 L 481.704,673.443 L 482.032,674.319 L 482.484,675.167 L 483.045,676.016 L 483.743,676.851 L 484.564,677.672 L 485.508,678.479 L 486.575,679.259 L 487.752,680.025 L 489.039,680.778 L 490.434,681.517 L 491.94,682.215 L 493.555,682.885 L 495.238,683.529 L 497.044,684.144 L 498.933,684.719 L 500.903,685.267 L 502.942,685.773 L 505.063,686.252 L 507.239,686.703 L 509.497,687.1 L 511.81,687.47 L 514.163,687.798 L 516.558,688.072 L 519.008,688.304 L 521.471,688.496 L 523.975,688.647 L 526.493,688.756 L 529.025,688.838 L 531.57,688.852 L 531.57,688.852 L 534.102,688.838 L 536.633,688.756 L 539.151,688.647 L 541.655,688.496 L 544.119,688.304 L 546.568,688.072 L 548.977,687.798 L 551.317,687.47 L 553.629,687.1 L 555.887,686.703 L 558.063,686.252 L 560.198,685.773 L 562.237,685.267 L 564.207,684.719 L 566.082,684.144 L 567.889,683.529 L 569.585,682.885 L 571.187,682.215 L 572.706,681.517 L 574.088,680.778 L 575.374,680.025 L 576.551,679.259 L 577.618,678.479 L 578.562,677.672 L 579.384,676.851 L 580.081,676.016 L 580.642,675.167 L 581.094,674.319 L 581.423,673.443 L 581.614,672.595 L 581.683,671.719z"/>
    <path style="fill: none; fill-opacity:0; stroke-width: 0.02; stroke-dasharray: 4; stroke: #494936" d="M 581.094 671.445 L 581.026,670.569 L 580.848,669.735 L 580.533,668.886 L 580.095,668.051 L 579.507,667.203 L 578.795,666.396 L 578.015,665.575 L 577.057,664.808 L 576.003,664.028 L 574.84,663.262 L 573.554,662.537 L 572.172,661.811 L 570.68,661.127 L 569.106,660.443 L 567.382,659.827 L 565.59,659.225 L 563.715,658.65 L 561.772,658.117 L 559.746,657.624 L 557.639,657.145 L 555.449,656.721 L 553.219,656.324 L 550.92,655.954 L 548.593,655.64 L 546.212,655.366 L 543.763,655.147 L 541.313,654.928 L 538.823,654.805 L 536.332,654.695 L 533.787,654.627 L 531.269,654.586 L 531.269,654.586 L 528.751,654.627 L 526.233,654.695 L 523.715,654.805 L 521.252,654.928 L 518.789,655.147 L 516.353,655.366 L 513.958,655.64 L 511.618,655.954 L 509.333,656.324 L 507.102,656.721 L 504.913,657.145 L 502.805,657.624 L 500.794,658.117 L 498.823,658.65 L 496.935,659.225 L 495.156,659.827 L 493.459,660.443 L 491.885,661.127 L 490.38,661.811 L 488.984,662.537 L 487.725,663.262 L 486.562,664.028 L 485.481,664.808 L 484.55,665.575 L 483.743,666.396 L 483.045,667.203 L 482.47,668.051 L 482.019,668.886 L 481.704,669.735 L 481.526,670.569 L 481.457,671.445 L 481.457,671.445 L 481.526,672.294 L 481.704,673.128 L 482.019,673.991 L 482.47,674.825 L 483.045,675.66 L 483.743,676.481 L 484.55,677.288 L 485.481,678.068 L 486.562,678.835 L 487.725,679.615 L 488.984,680.354 L 490.38,681.052 L 491.885,681.75 L 493.459,682.42 L 495.156,683.05 L 496.935,683.652 L 498.823,684.213 L 500.794,684.76 L 502.805,685.253 L 504.913,685.732 L 507.102,686.17 L 509.333,686.553 L 511.618,686.909 L 513.958,687.223 L 516.353,687.497 L 518.789,687.73 L 521.252,687.935 L 523.715,688.072 L 526.233,688.181 L 528.751,688.25 L 531.269,688.277 L 531.269,688.277 L 533.787,688.25 L 536.332,688.181 L 538.823,688.072 L 541.313,687.935 L 543.763,687.73 L 546.212,687.497 L 548.593,687.223 L 550.92,686.909 L 553.219,686.553 L 555.449,686.17 L 557.639,685.732 L 559.746,685.253 L 561.772,684.76 L 563.715,684.213 L 565.59,683.652 L 567.382,683.05 L 569.106,682.42 L 570.68,681.75 L 572.172,681.052 L 573.554,680.354 L 574.84,679.615 L 576.003,678.835 L 577.057,678.068 L 578.015,677.288 L 578.795,676.481 L 579.507,675.66 L 580.095,674.825 L 580.533,673.991 L 580.848,673.128 L 581.026,672.294 L 581.094,671.445"/>
    <path style="fill: #a5a585" d="M 481.457 635.934 L 481.457,672.02 L 581.094,672.02 L 581.094,635.934 L 481.457,635.934z"/>
    <path style="fill: #c9c9b6" d="M 581.683 635.633 L 581.614,634.743 L 581.423,633.881 L 581.094,633.033 L 580.642,632.184 L 580.081,631.322 L 579.384,630.488 L 578.562,629.653 L 577.618,628.873 L 576.551,628.093 L 575.374,627.299 L 574.088,626.574 L 572.706,625.835 L 571.187,625.123 L 569.585,624.466 L 567.889,623.823 L 566.082,623.194 L 564.207,622.619 L 562.237,622.085 L 560.198,621.565 L 558.063,621.086 L 555.887,620.648 L 553.629,620.252 L 551.317,619.882 L 548.977,619.554 L 546.568,619.28 L 544.119,619.047 L 541.655,618.856 L 539.151,618.705 L 536.633,618.582 L 534.102,618.514 L 531.57,618.5 L 531.57,618.5 L 529.025,618.514 L 526.493,618.582 L 523.975,618.705 L 521.471,618.856 L 519.008,619.047 L 516.558,619.28 L 514.163,619.554 L 511.81,619.882 L 509.497,620.252 L 507.239,620.648 L 505.063,621.086 L 502.942,621.565 L 500.903,622.085 L 498.933,622.619 L 497.044,623.194 L 495.238,623.823 L 493.555,624.466 L 491.94,625.123 L 490.434,625.835 L 489.039,626.574 L 487.752,627.299 L 486.575,628.093 L 485.508,628.873 L 484.564,629.653 L 483.743,630.488 L 483.045,631.322 L 482.484,632.184 L 482.032,633.033 L 481.704,633.881 L 481.526,634.743 L 481.457,635.633 L 481.457,635.633 L 481.526,636.495 L 481.704,637.371 L 482.032,638.206 L 482.484,639.081 L 483.045,639.916 L 483.743,640.765 L 484.564,641.586 L 485.508,642.379 L 486.575,643.173 L 487.752,643.939 L 489.039,644.692 L 490.434,645.417 L 491.94,646.115 L 493.555,646.786 L 495.238,647.443 L 497.044,648.045 L 498.933,648.633 L 500.903,649.181 L 502.942,649.687 L 505.063,650.166 L 507.239,650.617 L 509.497,651.001 L 511.81,651.384 L 514.163,651.699 L 516.558,651.972 L 519.008,652.219 L 521.471,652.396 L 523.975,652.561 L 526.493,652.67 L 529.025,652.739 L 531.57,652.766 L 531.57,652.766 L 534.102,652.739 L 536.633,652.67 L 539.151,652.561 L 541.655,652.396 L 544.119,652.219 L 546.568,651.972 L 548.977,651.699 L 551.317,651.384 L 553.629,651.001 L 555.887,650.617 L 558.063,650.166 L 560.198,649.687 L 562.237,649.181 L 564.207,648.633 L 566.082,648.045 L 567.889,647.443 L 569.585,646.786 L 571.187,646.115 L 572.706,645.417 L 574.088,644.692 L 575.374,643.939 L 576.551,643.173 L 577.618,642.379 L 578.562,641.586 L 579.384,640.765 L 580.081,639.916 L 580.642,639.081 L 581.094,638.206 L 581.423,637.371 L 581.614,636.495 L 581.683,635.633z"/>
    <path style="fill: none; fill-opacity:0; stroke-width: 0.02; stroke-dasharray: 4; stroke: #494936" d="M 581.094 635.359 L 581.026,634.483 L 580.848,633.649 L 580.533,632.814 L 580.095,631.966 L 579.507,631.103 L 578.795,630.296 L 578.015,629.516 L 577.057,628.709 L 576.003,627.942 L 574.84,627.162 L 573.554,626.451 L 572.172,625.725 L 570.68,625.027 L 569.106,624.384 L 567.382,623.741 L 565.59,623.153 L 563.715,622.578 L 561.772,622.031 L 559.746,621.524 L 557.639,621.059 L 555.449,620.635 L 553.219,620.238 L 550.92,619.882 L 548.593,619.554 L 546.212,619.28 L 543.763,619.047 L 541.313,618.856 L 538.823,618.705 L 537.988,618.664 L 524.55,618.664 L 523.715,618.705 L 521.252,618.856 L 518.789,619.047 L 516.353,619.28 L 513.958,619.554 L 511.618,619.882 L 509.333,620.238 L 507.102,620.635 L 504.913,621.059 L 502.805,621.524 L 500.794,622.031 L 498.823,622.578 L 496.935,623.153 L 495.156,623.741 L 493.459,624.384 L 491.885,625.027 L 490.38,625.725 L 488.984,626.451 L 487.725,627.162 L 486.562,627.942 L 485.481,628.709 L 484.55,629.516 L 483.743,630.296 L 483.045,631.103 L 482.47,631.966 L 482.019,632.814 L 481.704,633.649 L 481.526,634.483 L 481.457,635.359 L 481.457,635.359 L 481.526,636.194 L 481.704,637.056 L 482.019,637.905 L 482.47,638.739 L 483.045,639.574 L 483.743,640.395 L 484.55,641.189 L 485.481,641.996 L 486.562,642.763 L 487.725,643.529 L 488.984,644.268 L 490.38,644.966 L 491.885,645.65 L 493.459,646.334 L 495.156,646.964 L 496.935,647.552 L 498.823,648.113 L 500.794,648.661 L 502.805,649.153 L 504.913,649.632 L 507.102,650.084 L 509.333,650.44 L 511.618,650.823 L 513.958,651.124 L 516.353,651.411 L 518.789,651.657 L 521.252,651.849 L 523.715,652 L 526.233,652.095 L 528.751,652.15 L 531.269,652.191 L 531.269,652.191 L 533.787,652.15 L 536.332,652.095 L 538.823,652 L 541.313,651.849 L 543.763,651.657 L 546.212,651.411 L 548.593,651.124 L 550.92,650.823 L 553.219,650.44 L 555.449,650.084 L 557.639,649.632 L 559.746,649.153 L 561.772,648.661 L 563.715,648.113 L 565.59,647.552 L 567.382,646.964 L 569.106,646.334 L 570.68,645.65 L 572.172,644.966 L 573.554,644.268 L 574.84,643.529 L 576.003,642.763 L 577.057,641.996 L 578.015,641.189 L 578.795,640.395 L 579.507,639.574 L 580.095,638.739 L 580.533,637.905 L 580.848,637.056 L 581.026,636.194 L 581.094,635.359"/>
    <path style="fill: none; fill-opacity:0; stroke-width: 0.02; stroke-dasharray: 4; stroke: #000000" d="M 481.457 635.359 L 481.457,671.418"/>
    <path style="fill: none; fill-opacity:0; stroke-width: 0.02; stroke-dasharray: 4; stroke: #000000" d="M 581.094 635.359 L 581.094,671.418"/>
  </g>
  <text font-size="20.32" style="fill: #ff0000;text-anchor:middle;font-family:sans-serif;font-style:normal;font-weight:normal" x="209.906" y="660.614">
    <tspan x="209.906" y="660.614">joomla3</tspan>
  </text>
  <text font-size="20.32" style="fill: #ff0000;text-anchor:middle;font-family:sans-serif;font-style:normal;font-weight:normal" x="371.556" y="663.114">
    <tspan x="371.556" y="663.114">joomla25</tspan>
  </text>
  <text font-size="20.32" style="fill: #ff0000;text-anchor:middle;font-family:sans-serif;font-style:normal;font-weight:normal" x="531.206" y="660.614">
    <tspan x="531.206" y="660.614">joomla3</tspan>
  </text>
  <line style="fill: none; fill-opacity:0; stroke-width: 2; stroke: #000000" x1="399.674" y1="129.857" x2="261.099" y2="210.481"/>
  <line style="fill: none; fill-opacity:0; stroke-width: 2; stroke: #000000" x1="426.933" y1="141.025" x2="393.665" y2="200.31"/>
  <line style="fill: none; fill-opacity:0; stroke-width: 2; stroke: #000000" x1="472.828" y1="141.041" x2="507.055" y2="199.817"/>
  <line style="fill: none; fill-opacity:0; stroke-width: 2; stroke: #000000" x1="499.151" y1="129.731" x2="640.957" y2="212.006"/>
  <line style="fill: none; fill-opacity:0; stroke-width: 2; stroke: #000000" x1="222.675" y1="279.54" x2="279.953" y2="483.509"/>
  <line style="fill: none; fill-opacity:0; stroke-width: 2; stroke: #000000" x1="394.427" y1="280.031" x2="427.799" y2="338.325"/>
  <line style="fill: none; fill-opacity:0; stroke-width: 2; stroke: #000000" x1="507.015" y1="279.541" x2="473.213" y2="338.317"/>
  <line style="fill: none; fill-opacity:0; stroke-width: 2; stroke: #000000" x1="667.242" y1="280.978" x2="633.321" y2="338.809"/>
  <line style="fill: none; fill-opacity:0; stroke-width: 2; stroke: #000000" x1="405.569" y1="418.01" x2="334.709" y2="481.34"/>
  <line style="fill: none; fill-opacity:0; stroke-width: 2; stroke: #000000" x1="473.154" y1="418.009" x2="508.714" y2="480.84"/>
  <line style="fill: none; fill-opacity:0; stroke-width: 2; stroke: #000000" x1="266.097" y1="561.018" x2="230.342" y2="619.922"/>
  <line style="fill: none; fill-opacity:0; stroke-width: 2; stroke: #000000" x1="314.534" y1="561.04" x2="351.419" y2="622.522"/>
  <line style="fill: none; fill-opacity:0; stroke-width: 2; stroke: #000000" x1="531.133" y1="560.531" x2="531.178" y2="618.494"/>
  <line style="fill: none; fill-opacity:0; stroke-width: 2; stroke: #000000" x1="587.786" y1="418.507" x2="553.108" y2="480.84"/>
  <text font-size="13.5467" style="fill: #ff0000;text-anchor:start;font-family:sans-serif;font-style:normal;font-weight:normal" x="162.33" y="190.75">
    <tspan x="162.33" y="190.75">j25-mysqli.dev</tspan>
  </text>
  <text font-size="13.5467" style="fill: #ff0000;text-anchor:start;font-family:sans-serif;font-style:normal;font-weight:normal" x="312.33" y="191.75">
    <tspan x="312.33" y="191.75">j3-mysql.dev</tspan>
  </text>
  <text font-size="13.5467" style="fill: #ff0000;text-anchor:start;font-family:sans-serif;font-style:normal;font-weight:normal" x="444.33" y="190.75">
    <tspan x="444.33" y="190.75">j3-postgresql-18.dev</tspan>
  </text>
  <text font-size="13.5467" style="fill: #ff0000;text-anchor:start;font-family:sans-serif;font-style:normal;font-weight:normal" x="602.33" y="190.75">
    <tspan x="602.33" y="190.75">j3-postgresql-19.dev</tspan>
  </text>
  <text font-size="13.5467" style="fill: #ff0000;text-anchor:start;font-family:sans-serif;font-style:normal;font-weight:normal" x="479.33" y="24.75">
    <tspan x="479.33" y="24.75">*.dev</tspan>
  </text>
  <text font-size="13.5467" style="fill: #000000;text-anchor:start;font-family:sans-serif;font-style:normal;font-weight:normal" x="478.33" y="40.75">
    <tspan x="478.33" y="40.75">(dnsmasq)</tspan>
  </text>
</svg>
